<mxfile host="app.diagrams.net" agent="Mozilla/5.0 (X11; Ubuntu; Linux x86_64; rv:141.0) Gecko/20100101 Firefox/141.0" version="28.0.7">
  <diagram name="Page-1" id="WMk_QF5r7PnCMm8mxluA">
    <mxGraphModel dx="2253" dy="1967" grid="1" gridSize="10" guides="1" tooltips="1" connect="1" arrows="1" fold="1" page="1" pageScale="1" pageWidth="827" pageHeight="1169" math="0" shadow="0">
      <root>
        <mxCell id="0" />
        <mxCell id="1" parent="0" />
        <mxCell id="XRDUP2xehQCX9bBxLQ7m-34" style="edgeStyle=orthogonalEdgeStyle;rounded=0;orthogonalLoop=1;jettySize=auto;html=1;exitX=0.25;exitY=0;exitDx=0;exitDy=0;entryX=1;entryY=0.5;entryDx=0;entryDy=0;" edge="1" parent="1" source="XRDUP2xehQCX9bBxLQ7m-1" target="XRDUP2xehQCX9bBxLQ7m-36">
          <mxGeometry relative="1" as="geometry">
            <mxPoint x="60" y="49.99999999999977" as="targetPoint" />
            <Array as="points">
              <mxPoint x="80" y="60" />
              <mxPoint x="30" y="60" />
            </Array>
          </mxGeometry>
        </mxCell>
        <mxCell id="XRDUP2xehQCX9bBxLQ7m-39" style="edgeStyle=orthogonalEdgeStyle;rounded=0;orthogonalLoop=1;jettySize=auto;html=1;entryX=1;entryY=0.5;entryDx=0;entryDy=0;" edge="1" parent="1" source="XRDUP2xehQCX9bBxLQ7m-1" target="XRDUP2xehQCX9bBxLQ7m-21">
          <mxGeometry relative="1" as="geometry" />
        </mxCell>
        <mxCell id="XRDUP2xehQCX9bBxLQ7m-46" style="edgeStyle=orthogonalEdgeStyle;rounded=0;orthogonalLoop=1;jettySize=auto;html=1;" edge="1" parent="1" source="XRDUP2xehQCX9bBxLQ7m-1" target="XRDUP2xehQCX9bBxLQ7m-41">
          <mxGeometry relative="1" as="geometry">
            <Array as="points">
              <mxPoint x="120" y="160" />
              <mxPoint x="200" y="160" />
            </Array>
          </mxGeometry>
        </mxCell>
        <mxCell id="XRDUP2xehQCX9bBxLQ7m-53" style="edgeStyle=orthogonalEdgeStyle;rounded=0;orthogonalLoop=1;jettySize=auto;html=1;exitX=1;exitY=0.5;exitDx=0;exitDy=0;" edge="1" parent="1" source="XRDUP2xehQCX9bBxLQ7m-1" target="XRDUP2xehQCX9bBxLQ7m-49">
          <mxGeometry relative="1" as="geometry" />
        </mxCell>
        <mxCell id="XRDUP2xehQCX9bBxLQ7m-58" style="edgeStyle=orthogonalEdgeStyle;rounded=0;orthogonalLoop=1;jettySize=auto;html=1;exitX=0.868;exitY=0.005;exitDx=0;exitDy=0;exitPerimeter=0;" edge="1" parent="1" source="XRDUP2xehQCX9bBxLQ7m-1" target="XRDUP2xehQCX9bBxLQ7m-59">
          <mxGeometry relative="1" as="geometry">
            <mxPoint x="260" y="-20.000000000000227" as="targetPoint" />
            <mxPoint x="180" y="39.99999999999977" as="sourcePoint" />
            <Array as="points">
              <mxPoint x="180" y="80" />
              <mxPoint x="260" y="80" />
            </Array>
          </mxGeometry>
        </mxCell>
        <mxCell id="XRDUP2xehQCX9bBxLQ7m-1" value="&lt;div&gt;employees&lt;/div&gt;" style="rounded=0;whiteSpace=wrap;html=1;" vertex="1" parent="1">
          <mxGeometry x="50" y="80" width="120" height="60" as="geometry" />
        </mxCell>
        <mxCell id="XRDUP2xehQCX9bBxLQ7m-81" value="" style="edgeStyle=orthogonalEdgeStyle;rounded=0;orthogonalLoop=1;jettySize=auto;html=1;" edge="1" parent="1" source="XRDUP2xehQCX9bBxLQ7m-2" target="XRDUP2xehQCX9bBxLQ7m-80">
          <mxGeometry relative="1" as="geometry" />
        </mxCell>
        <mxCell id="XRDUP2xehQCX9bBxLQ7m-87" value="" style="edgeStyle=orthogonalEdgeStyle;rounded=0;orthogonalLoop=1;jettySize=auto;html=1;" edge="1" parent="1" source="XRDUP2xehQCX9bBxLQ7m-2" target="XRDUP2xehQCX9bBxLQ7m-86">
          <mxGeometry relative="1" as="geometry" />
        </mxCell>
        <mxCell id="XRDUP2xehQCX9bBxLQ7m-89" value="" style="edgeStyle=orthogonalEdgeStyle;rounded=0;orthogonalLoop=1;jettySize=auto;html=1;" edge="1" parent="1" source="XRDUP2xehQCX9bBxLQ7m-2" target="XRDUP2xehQCX9bBxLQ7m-88">
          <mxGeometry relative="1" as="geometry" />
        </mxCell>
        <mxCell id="XRDUP2xehQCX9bBxLQ7m-90" style="edgeStyle=orthogonalEdgeStyle;rounded=0;orthogonalLoop=1;jettySize=auto;html=1;" edge="1" parent="1" source="XRDUP2xehQCX9bBxLQ7m-2" target="XRDUP2xehQCX9bBxLQ7m-91">
          <mxGeometry relative="1" as="geometry">
            <mxPoint x="90" y="540" as="targetPoint" />
          </mxGeometry>
        </mxCell>
        <mxCell id="XRDUP2xehQCX9bBxLQ7m-2" value="&lt;div&gt;departments&lt;/div&gt;" style="rounded=0;whiteSpace=wrap;html=1;" vertex="1" parent="1">
          <mxGeometry x="130" y="360" width="120" height="60" as="geometry" />
        </mxCell>
        <mxCell id="XRDUP2xehQCX9bBxLQ7m-72" value="" style="edgeStyle=orthogonalEdgeStyle;rounded=0;orthogonalLoop=1;jettySize=auto;html=1;" edge="1" parent="1" source="XRDUP2xehQCX9bBxLQ7m-4" target="XRDUP2xehQCX9bBxLQ7m-71">
          <mxGeometry relative="1" as="geometry" />
        </mxCell>
        <mxCell id="XRDUP2xehQCX9bBxLQ7m-73" value="" style="edgeStyle=orthogonalEdgeStyle;rounded=0;orthogonalLoop=1;jettySize=auto;html=1;" edge="1" parent="1" source="XRDUP2xehQCX9bBxLQ7m-4" target="XRDUP2xehQCX9bBxLQ7m-71">
          <mxGeometry relative="1" as="geometry" />
        </mxCell>
        <mxCell id="XRDUP2xehQCX9bBxLQ7m-74" value="" style="edgeStyle=orthogonalEdgeStyle;rounded=0;orthogonalLoop=1;jettySize=auto;html=1;" edge="1" parent="1" source="XRDUP2xehQCX9bBxLQ7m-4" target="XRDUP2xehQCX9bBxLQ7m-71">
          <mxGeometry relative="1" as="geometry" />
        </mxCell>
        <mxCell id="XRDUP2xehQCX9bBxLQ7m-76" value="" style="edgeStyle=orthogonalEdgeStyle;rounded=0;orthogonalLoop=1;jettySize=auto;html=1;" edge="1" parent="1" source="XRDUP2xehQCX9bBxLQ7m-4" target="XRDUP2xehQCX9bBxLQ7m-75">
          <mxGeometry relative="1" as="geometry" />
        </mxCell>
        <mxCell id="XRDUP2xehQCX9bBxLQ7m-78" value="" style="edgeStyle=orthogonalEdgeStyle;rounded=0;orthogonalLoop=1;jettySize=auto;html=1;" edge="1" parent="1" source="XRDUP2xehQCX9bBxLQ7m-4" target="XRDUP2xehQCX9bBxLQ7m-77">
          <mxGeometry relative="1" as="geometry" />
        </mxCell>
        <mxCell id="XRDUP2xehQCX9bBxLQ7m-84" style="edgeStyle=orthogonalEdgeStyle;rounded=0;orthogonalLoop=1;jettySize=auto;html=1;" edge="1" parent="1" source="XRDUP2xehQCX9bBxLQ7m-4" target="XRDUP2xehQCX9bBxLQ7m-85">
          <mxGeometry relative="1" as="geometry">
            <mxPoint x="620" y="500" as="targetPoint" />
          </mxGeometry>
        </mxCell>
        <mxCell id="XRDUP2xehQCX9bBxLQ7m-4" value="&lt;div&gt;projects&lt;/div&gt;" style="rounded=0;whiteSpace=wrap;html=1;" vertex="1" parent="1">
          <mxGeometry x="500" y="360" width="120" height="60" as="geometry" />
        </mxCell>
        <mxCell id="XRDUP2xehQCX9bBxLQ7m-9" value="&lt;div&gt;Lname&lt;/div&gt;" style="ellipse;whiteSpace=wrap;html=1;rounded=0;" vertex="1" parent="1">
          <mxGeometry x="-50" y="-70" width="60" height="50" as="geometry" />
        </mxCell>
        <mxCell id="XRDUP2xehQCX9bBxLQ7m-16" value="" style="edgeStyle=orthogonalEdgeStyle;rounded=0;orthogonalLoop=1;jettySize=auto;html=1;" edge="1" parent="1" source="XRDUP2xehQCX9bBxLQ7m-15" target="XRDUP2xehQCX9bBxLQ7m-1">
          <mxGeometry relative="1" as="geometry" />
        </mxCell>
        <mxCell id="XRDUP2xehQCX9bBxLQ7m-15" value="&lt;u&gt;SSN&lt;/u&gt;" style="ellipse;whiteSpace=wrap;html=1;rounded=0;" vertex="1" parent="1">
          <mxGeometry x="55" y="-70" width="80" height="70" as="geometry" />
        </mxCell>
        <mxCell id="XRDUP2xehQCX9bBxLQ7m-18" style="edgeStyle=orthogonalEdgeStyle;rounded=0;orthogonalLoop=1;jettySize=auto;html=1;" edge="1" parent="1" source="XRDUP2xehQCX9bBxLQ7m-17" target="XRDUP2xehQCX9bBxLQ7m-1">
          <mxGeometry relative="1" as="geometry" />
        </mxCell>
        <mxCell id="XRDUP2xehQCX9bBxLQ7m-17" value="Birth&lt;br&gt;Date" style="ellipse;whiteSpace=wrap;html=1;rounded=0;" vertex="1" parent="1">
          <mxGeometry x="-70" y="95" width="80" height="70" as="geometry" />
        </mxCell>
        <mxCell id="XRDUP2xehQCX9bBxLQ7m-19" value="Fname" style="ellipse;whiteSpace=wrap;html=1;rounded=0;" vertex="1" parent="1">
          <mxGeometry x="-110" y="-30" width="60" height="50" as="geometry" />
        </mxCell>
        <mxCell id="XRDUP2xehQCX9bBxLQ7m-21" value="Gender" style="ellipse;whiteSpace=wrap;html=1;rounded=0;" vertex="1" parent="1">
          <mxGeometry x="-90" y="170" width="70" height="70" as="geometry" />
        </mxCell>
        <mxCell id="XRDUP2xehQCX9bBxLQ7m-63" value="" style="edgeStyle=orthogonalEdgeStyle;rounded=0;orthogonalLoop=1;jettySize=auto;html=1;" edge="1" parent="1" source="XRDUP2xehQCX9bBxLQ7m-24" target="XRDUP2xehQCX9bBxLQ7m-62">
          <mxGeometry relative="1" as="geometry" />
        </mxCell>
        <mxCell id="XRDUP2xehQCX9bBxLQ7m-66" style="edgeStyle=orthogonalEdgeStyle;rounded=0;orthogonalLoop=1;jettySize=auto;html=1;" edge="1" parent="1" source="XRDUP2xehQCX9bBxLQ7m-24" target="XRDUP2xehQCX9bBxLQ7m-67">
          <mxGeometry relative="1" as="geometry">
            <mxPoint x="600" y="-40" as="targetPoint" />
          </mxGeometry>
        </mxCell>
        <mxCell id="XRDUP2xehQCX9bBxLQ7m-69" value="" style="edgeStyle=orthogonalEdgeStyle;rounded=0;orthogonalLoop=1;jettySize=auto;html=1;" edge="1" parent="1" source="XRDUP2xehQCX9bBxLQ7m-24" target="XRDUP2xehQCX9bBxLQ7m-68">
          <mxGeometry relative="1" as="geometry" />
        </mxCell>
        <mxCell id="XRDUP2xehQCX9bBxLQ7m-24" value="dependent" style="rounded=0;whiteSpace=wrap;html=1;" vertex="1" parent="1">
          <mxGeometry x="440" y="80" width="120" height="60" as="geometry" />
        </mxCell>
        <mxCell id="XRDUP2xehQCX9bBxLQ7m-38" style="edgeStyle=orthogonalEdgeStyle;rounded=0;orthogonalLoop=1;jettySize=auto;html=1;entryX=1;entryY=1;entryDx=0;entryDy=0;" edge="1" parent="1" source="XRDUP2xehQCX9bBxLQ7m-36" target="XRDUP2xehQCX9bBxLQ7m-19">
          <mxGeometry relative="1" as="geometry" />
        </mxCell>
        <mxCell id="XRDUP2xehQCX9bBxLQ7m-36" value="Name" style="ellipse;whiteSpace=wrap;html=1;aspect=fixed;" vertex="1" parent="1">
          <mxGeometry x="-20" y="20" width="50" height="50" as="geometry" />
        </mxCell>
        <mxCell id="XRDUP2xehQCX9bBxLQ7m-37" style="edgeStyle=orthogonalEdgeStyle;rounded=0;orthogonalLoop=1;jettySize=auto;html=1;entryX=0.724;entryY=1.006;entryDx=0;entryDy=0;entryPerimeter=0;" edge="1" parent="1" source="XRDUP2xehQCX9bBxLQ7m-36" target="XRDUP2xehQCX9bBxLQ7m-9">
          <mxGeometry relative="1" as="geometry" />
        </mxCell>
        <mxCell id="XRDUP2xehQCX9bBxLQ7m-94" value="" style="edgeStyle=orthogonalEdgeStyle;rounded=0;orthogonalLoop=1;jettySize=auto;html=1;" edge="1" parent="1" source="XRDUP2xehQCX9bBxLQ7m-41" target="XRDUP2xehQCX9bBxLQ7m-93">
          <mxGeometry relative="1" as="geometry" />
        </mxCell>
        <mxCell id="XRDUP2xehQCX9bBxLQ7m-41" value="&lt;div&gt;Work&lt;/div&gt;" style="rhombus;whiteSpace=wrap;html=1;" vertex="1" parent="1">
          <mxGeometry x="160" y="190" width="80" height="80" as="geometry" />
        </mxCell>
        <mxCell id="XRDUP2xehQCX9bBxLQ7m-44" style="edgeStyle=orthogonalEdgeStyle;rounded=0;orthogonalLoop=1;jettySize=auto;html=1;entryX=0.25;entryY=0;entryDx=0;entryDy=0;" edge="1" parent="1" source="XRDUP2xehQCX9bBxLQ7m-42" target="XRDUP2xehQCX9bBxLQ7m-2">
          <mxGeometry relative="1" as="geometry" />
        </mxCell>
        <mxCell id="XRDUP2xehQCX9bBxLQ7m-70" style="edgeStyle=orthogonalEdgeStyle;rounded=0;orthogonalLoop=1;jettySize=auto;html=1;entryX=0;entryY=0.5;entryDx=0;entryDy=0;" edge="1" parent="1" source="XRDUP2xehQCX9bBxLQ7m-42" target="XRDUP2xehQCX9bBxLQ7m-2">
          <mxGeometry relative="1" as="geometry">
            <Array as="points">
              <mxPoint x="80" y="390" />
            </Array>
          </mxGeometry>
        </mxCell>
        <mxCell id="XRDUP2xehQCX9bBxLQ7m-97" style="edgeStyle=orthogonalEdgeStyle;rounded=0;orthogonalLoop=1;jettySize=auto;html=1;" edge="1" parent="1" source="XRDUP2xehQCX9bBxLQ7m-42" target="XRDUP2xehQCX9bBxLQ7m-98">
          <mxGeometry relative="1" as="geometry">
            <mxPoint x="20" y="350" as="targetPoint" />
          </mxGeometry>
        </mxCell>
        <mxCell id="XRDUP2xehQCX9bBxLQ7m-42" value="&lt;div&gt;Manage&lt;/div&gt;" style="rhombus;whiteSpace=wrap;html=1;" vertex="1" parent="1">
          <mxGeometry x="50" y="200" width="80" height="80" as="geometry" />
        </mxCell>
        <mxCell id="XRDUP2xehQCX9bBxLQ7m-43" style="edgeStyle=orthogonalEdgeStyle;rounded=0;orthogonalLoop=1;jettySize=auto;html=1;entryX=0.615;entryY=-0.052;entryDx=0;entryDy=0;entryPerimeter=0;" edge="1" parent="1" source="XRDUP2xehQCX9bBxLQ7m-41" target="XRDUP2xehQCX9bBxLQ7m-2">
          <mxGeometry relative="1" as="geometry" />
        </mxCell>
        <mxCell id="XRDUP2xehQCX9bBxLQ7m-45" style="edgeStyle=orthogonalEdgeStyle;rounded=0;orthogonalLoop=1;jettySize=auto;html=1;" edge="1" parent="1" source="XRDUP2xehQCX9bBxLQ7m-1" target="XRDUP2xehQCX9bBxLQ7m-41">
          <mxGeometry relative="1" as="geometry">
            <Array as="points">
              <mxPoint x="110" y="165" />
              <mxPoint x="190" y="165" />
            </Array>
          </mxGeometry>
        </mxCell>
        <mxCell id="XRDUP2xehQCX9bBxLQ7m-47" style="edgeStyle=orthogonalEdgeStyle;rounded=0;orthogonalLoop=1;jettySize=auto;html=1;entryX=0.31;entryY=1.028;entryDx=0;entryDy=0;entryPerimeter=0;" edge="1" parent="1" source="XRDUP2xehQCX9bBxLQ7m-42" target="XRDUP2xehQCX9bBxLQ7m-1">
          <mxGeometry relative="1" as="geometry" />
        </mxCell>
        <mxCell id="XRDUP2xehQCX9bBxLQ7m-54" style="edgeStyle=orthogonalEdgeStyle;rounded=0;orthogonalLoop=1;jettySize=auto;html=1;entryX=0;entryY=0.5;entryDx=0;entryDy=0;" edge="1" parent="1" source="XRDUP2xehQCX9bBxLQ7m-49" target="XRDUP2xehQCX9bBxLQ7m-24">
          <mxGeometry relative="1" as="geometry" />
        </mxCell>
        <mxCell id="XRDUP2xehQCX9bBxLQ7m-55" style="edgeStyle=orthogonalEdgeStyle;rounded=0;orthogonalLoop=1;jettySize=auto;html=1;exitX=1;exitY=0;exitDx=0;exitDy=0;entryX=0;entryY=0.25;entryDx=0;entryDy=0;" edge="1" parent="1" source="XRDUP2xehQCX9bBxLQ7m-49" target="XRDUP2xehQCX9bBxLQ7m-24">
          <mxGeometry relative="1" as="geometry">
            <Array as="points">
              <mxPoint x="340" y="100" />
              <mxPoint x="440" y="100" />
            </Array>
          </mxGeometry>
        </mxCell>
        <mxCell id="XRDUP2xehQCX9bBxLQ7m-49" value="&lt;div&gt;Have&lt;/div&gt;" style="rhombus;whiteSpace=wrap;html=1;" vertex="1" parent="1">
          <mxGeometry x="280" y="70" width="80" height="80" as="geometry" />
        </mxCell>
        <mxCell id="XRDUP2xehQCX9bBxLQ7m-56" value="&lt;div&gt;1&lt;/div&gt;" style="text;html=1;align=center;verticalAlign=middle;resizable=0;points=[];autosize=1;strokeColor=none;fillColor=none;" vertex="1" parent="1">
          <mxGeometry x="185" y="80" width="30" height="30" as="geometry" />
        </mxCell>
        <mxCell id="XRDUP2xehQCX9bBxLQ7m-57" value="M" style="text;html=1;align=center;verticalAlign=middle;resizable=0;points=[];autosize=1;strokeColor=none;fillColor=none;" vertex="1" parent="1">
          <mxGeometry x="376" y="68" width="30" height="30" as="geometry" />
        </mxCell>
        <mxCell id="XRDUP2xehQCX9bBxLQ7m-61" style="edgeStyle=orthogonalEdgeStyle;rounded=0;orthogonalLoop=1;jettySize=auto;html=1;entryX=0.805;entryY=0.063;entryDx=0;entryDy=0;entryPerimeter=0;" edge="1" parent="1" source="XRDUP2xehQCX9bBxLQ7m-59" target="XRDUP2xehQCX9bBxLQ7m-1">
          <mxGeometry relative="1" as="geometry">
            <mxPoint x="180" y="89.99999999999977" as="targetPoint" />
            <Array as="points">
              <mxPoint x="147" y="10" />
            </Array>
          </mxGeometry>
        </mxCell>
        <mxCell id="XRDUP2xehQCX9bBxLQ7m-59" value="Supervisor" style="rhombus;whiteSpace=wrap;html=1;" vertex="1" parent="1">
          <mxGeometry x="220" y="-60.00000000000023" width="80" height="80" as="geometry" />
        </mxCell>
        <mxCell id="XRDUP2xehQCX9bBxLQ7m-60" style="edgeStyle=orthogonalEdgeStyle;rounded=0;orthogonalLoop=1;jettySize=auto;html=1;entryX=0.701;entryY=0.017;entryDx=0;entryDy=0;entryPerimeter=0;" edge="1" parent="1" source="XRDUP2xehQCX9bBxLQ7m-59" target="XRDUP2xehQCX9bBxLQ7m-1">
          <mxGeometry relative="1" as="geometry">
            <Array as="points">
              <mxPoint x="134" />
            </Array>
          </mxGeometry>
        </mxCell>
        <mxCell id="XRDUP2xehQCX9bBxLQ7m-62" value="&lt;div&gt;Name&lt;/div&gt;" style="ellipse;whiteSpace=wrap;html=1;rounded=0;" vertex="1" parent="1">
          <mxGeometry x="460" y="-70" width="80" height="80" as="geometry" />
        </mxCell>
        <mxCell id="XRDUP2xehQCX9bBxLQ7m-64" value="" style="endArrow=none;dashed=1;html=1;dashPattern=1 3;strokeWidth=2;rounded=0;entryX=0.996;entryY=0.698;entryDx=0;entryDy=0;entryPerimeter=0;exitX=0.073;exitY=0.681;exitDx=0;exitDy=0;exitPerimeter=0;" edge="1" parent="1" source="XRDUP2xehQCX9bBxLQ7m-62" target="XRDUP2xehQCX9bBxLQ7m-62">
          <mxGeometry width="50" height="50" relative="1" as="geometry">
            <mxPoint x="475" y="30" as="sourcePoint" />
            <mxPoint x="525" y="-20" as="targetPoint" />
          </mxGeometry>
        </mxCell>
        <mxCell id="XRDUP2xehQCX9bBxLQ7m-67" value="Gender" style="ellipse;whiteSpace=wrap;html=1;" vertex="1" parent="1">
          <mxGeometry x="570" y="-60" width="90" height="70" as="geometry" />
        </mxCell>
        <mxCell id="XRDUP2xehQCX9bBxLQ7m-68" value="Date" style="ellipse;whiteSpace=wrap;html=1;rounded=0;" vertex="1" parent="1">
          <mxGeometry x="660" y="70" width="80" height="80" as="geometry" />
        </mxCell>
        <mxCell id="XRDUP2xehQCX9bBxLQ7m-71" value="City" style="ellipse;whiteSpace=wrap;html=1;rounded=0;" vertex="1" parent="1">
          <mxGeometry x="720" y="300" width="80" height="80" as="geometry" />
        </mxCell>
        <mxCell id="XRDUP2xehQCX9bBxLQ7m-75" value="&lt;div&gt;Location&lt;/div&gt;" style="ellipse;whiteSpace=wrap;html=1;rounded=0;" vertex="1" parent="1">
          <mxGeometry x="680" y="390" width="80" height="80" as="geometry" />
        </mxCell>
        <mxCell id="XRDUP2xehQCX9bBxLQ7m-77" value="&lt;u&gt;PNumber&lt;/u&gt;" style="ellipse;whiteSpace=wrap;html=1;rounded=0;" vertex="1" parent="1">
          <mxGeometry x="470" y="480" width="80" height="80" as="geometry" />
        </mxCell>
        <mxCell id="XRDUP2xehQCX9bBxLQ7m-83" style="edgeStyle=orthogonalEdgeStyle;rounded=0;orthogonalLoop=1;jettySize=auto;html=1;entryX=0;entryY=0.5;entryDx=0;entryDy=0;" edge="1" parent="1" source="XRDUP2xehQCX9bBxLQ7m-80" target="XRDUP2xehQCX9bBxLQ7m-4">
          <mxGeometry relative="1" as="geometry" />
        </mxCell>
        <mxCell id="XRDUP2xehQCX9bBxLQ7m-80" value="Assigne" style="rhombus;whiteSpace=wrap;html=1;rounded=0;" vertex="1" parent="1">
          <mxGeometry x="350" y="350" width="80" height="80" as="geometry" />
        </mxCell>
        <mxCell id="XRDUP2xehQCX9bBxLQ7m-82" style="edgeStyle=orthogonalEdgeStyle;rounded=0;orthogonalLoop=1;jettySize=auto;html=1;exitX=1;exitY=0;exitDx=0;exitDy=0;entryX=-0.003;entryY=0.155;entryDx=0;entryDy=0;entryPerimeter=0;" edge="1" parent="1" source="XRDUP2xehQCX9bBxLQ7m-80" target="XRDUP2xehQCX9bBxLQ7m-4">
          <mxGeometry relative="1" as="geometry">
            <Array as="points">
              <mxPoint x="500" y="370" />
            </Array>
          </mxGeometry>
        </mxCell>
        <mxCell id="XRDUP2xehQCX9bBxLQ7m-85" value="Name" style="ellipse;whiteSpace=wrap;html=1;" vertex="1" parent="1">
          <mxGeometry x="560" y="460" width="120" height="80" as="geometry" />
        </mxCell>
        <mxCell id="XRDUP2xehQCX9bBxLQ7m-86" value="DName" style="ellipse;whiteSpace=wrap;html=1;rounded=0;" vertex="1" parent="1">
          <mxGeometry x="150" y="490" width="80" height="80" as="geometry" />
        </mxCell>
        <mxCell id="XRDUP2xehQCX9bBxLQ7m-88" value="&lt;u&gt;DNUM&lt;/u&gt;" style="ellipse;whiteSpace=wrap;html=1;rounded=0;" vertex="1" parent="1">
          <mxGeometry x="240" y="530" width="80" height="80" as="geometry" />
        </mxCell>
        <mxCell id="XRDUP2xehQCX9bBxLQ7m-91" value="" style="ellipse;whiteSpace=wrap;html=1;" vertex="1" parent="1">
          <mxGeometry x="30" y="500" width="120" height="80" as="geometry" />
        </mxCell>
        <mxCell id="XRDUP2xehQCX9bBxLQ7m-92" value="locations" style="ellipse;whiteSpace=wrap;html=1;" vertex="1" parent="1">
          <mxGeometry x="40" y="510" width="100" height="60" as="geometry" />
        </mxCell>
        <mxCell id="XRDUP2xehQCX9bBxLQ7m-93" value="working hours" style="ellipse;whiteSpace=wrap;html=1;" vertex="1" parent="1">
          <mxGeometry x="320" y="190" width="80" height="80" as="geometry" />
        </mxCell>
        <mxCell id="XRDUP2xehQCX9bBxLQ7m-98" value="HiringDate" style="ellipse;whiteSpace=wrap;html=1;" vertex="1" parent="1">
          <mxGeometry x="-90" y="320" width="120" height="80" as="geometry" />
        </mxCell>
      </root>
    </mxGraphModel>
  </diagram>
</mxfile>
